<svg xmlns="http://www.w3.org/2000/svg" xmlns:xlink="http://www.w3.org/1999/xlink" width="500" zoomAndPan="magnify" viewBox="0 0 375 374.999991" height="500" preserveAspectRatio="xMidYMid meet" version="1.0"><path fill="#40bfbc" d="M 375 187.5 C 375 190.570312 374.925781 193.636719 374.773438 196.699219 C 374.625 199.765625 374.398438 202.824219 374.097656 205.878906 C 373.796875 208.933594 373.421875 211.976562 372.96875 215.011719 C 372.519531 218.046875 371.996094 221.070312 371.398438 224.078125 C 370.796875 227.089844 370.125 230.082031 369.378906 233.058594 C 368.636719 236.035156 367.816406 238.992188 366.925781 241.929688 C 366.035156 244.863281 365.074219 247.777344 364.039062 250.667969 C 363.003906 253.554688 361.902344 256.417969 360.726562 259.253906 C 359.554688 262.089844 358.308594 264.890625 356.996094 267.667969 C 355.6875 270.441406 354.308594 273.179688 352.859375 275.886719 C 351.414062 278.59375 349.902344 281.261719 348.324219 283.894531 C 346.746094 286.527344 345.105469 289.117188 343.402344 291.667969 C 341.695312 294.222656 339.929688 296.730469 338.101562 299.195312 C 336.273438 301.660156 334.386719 304.078125 332.4375 306.449219 C 330.492188 308.820312 328.488281 311.144531 326.429688 313.417969 C 324.367188 315.691406 322.253906 317.914062 320.082031 320.082031 C 317.914062 322.253906 315.691406 324.367188 313.417969 326.429688 C 311.144531 328.488281 308.820312 330.492188 306.449219 332.4375 C 304.078125 334.386719 301.660156 336.273438 299.195312 338.101562 C 296.730469 339.929688 294.222656 341.695312 291.667969 343.402344 C 289.117188 345.105469 286.527344 346.746094 283.894531 348.324219 C 281.261719 349.902344 278.59375 351.414062 275.886719 352.859375 C 273.179688 354.308594 270.441406 355.6875 267.667969 356.996094 C 264.890625 358.308594 262.089844 359.554688 259.253906 360.726562 C 256.417969 361.902344 253.554688 363.003906 250.667969 364.039062 C 247.777344 365.074219 244.863281 366.035156 241.929688 366.925781 C 238.992188 367.816406 236.035156 368.636719 233.058594 369.378906 C 230.082031 370.125 227.089844 370.796875 224.078125 371.398438 C 221.070312 371.996094 218.046875 372.519531 215.011719 372.96875 C 211.976562 373.421875 208.933594 373.796875 205.878906 374.097656 C 202.824219 374.398438 199.765625 374.625 196.699219 374.773438 C 193.636719 374.925781 190.570312 375 187.5 375 C 184.429688 375 181.363281 374.925781 178.300781 374.773438 C 175.234375 374.625 172.175781 374.398438 169.121094 374.097656 C 166.066406 373.796875 163.023438 373.421875 159.988281 372.96875 C 156.953125 372.519531 153.929688 371.996094 150.921875 371.398438 C 147.910156 370.796875 144.917969 370.125 141.941406 369.378906 C 138.964844 368.636719 136.007812 367.816406 133.070312 366.925781 C 130.136719 366.035156 127.222656 365.074219 124.332031 364.039062 C 121.445312 363.003906 118.582031 361.902344 115.746094 360.726562 C 112.910156 359.554688 110.105469 358.308594 107.332031 356.996094 C 104.558594 355.6875 101.820312 354.308594 99.113281 352.859375 C 96.40625 351.414062 93.738281 349.902344 91.105469 348.324219 C 88.472656 346.746094 85.882812 345.105469 83.332031 343.402344 C 80.777344 341.695312 78.269531 339.929688 75.804688 338.101562 C 73.339844 336.273438 70.921875 334.386719 68.550781 332.4375 C 66.179688 330.492188 63.855469 328.488281 61.582031 326.429688 C 59.308594 324.367188 57.085938 322.253906 54.917969 320.082031 C 52.746094 317.914062 50.632812 315.691406 48.570312 313.417969 C 46.511719 311.144531 44.507812 308.820312 42.558594 306.449219 C 40.613281 304.078125 38.726562 301.660156 36.898438 299.195312 C 35.070312 296.730469 33.304688 294.222656 31.597656 291.667969 C 29.894531 289.117188 28.253906 286.527344 26.675781 283.894531 C 25.097656 281.261719 23.585938 278.59375 22.140625 275.886719 C 20.691406 273.179688 19.3125 270.441406 18.003906 267.667969 C 16.691406 264.890625 15.445312 262.089844 14.273438 259.253906 C 13.097656 256.417969 11.996094 253.554688 10.960938 250.667969 C 9.925781 247.777344 8.964844 244.863281 8.074219 241.929688 C 7.183594 238.992188 6.363281 236.035156 5.621094 233.058594 C 4.875 230.082031 4.203125 227.089844 3.601562 224.078125 C 3.003906 221.070312 2.480469 218.046875 2.03125 215.011719 C 1.578125 211.976562 1.203125 208.933594 0.902344 205.878906 C 0.601562 202.824219 0.375 199.765625 0.226562 196.699219 C 0.0742188 193.636719 0 190.570312 0 187.5 C 0 184.429688 0.0742188 181.363281 0.226562 178.300781 C 0.375 175.234375 0.601562 172.175781 0.902344 169.121094 C 1.203125 166.066406 1.578125 163.023438 2.03125 159.988281 C 2.480469 156.953125 3.003906 153.929688 3.601562 150.921875 C 4.203125 147.910156 4.875 144.917969 5.621094 141.941406 C 6.363281 138.964844 7.183594 136.007812 8.074219 133.070312 C 8.964844 130.136719 9.925781 127.222656 10.960938 124.332031 C 11.996094 121.445312 13.097656 118.582031 14.273438 115.746094 C 15.445312 112.910156 16.691406 110.105469 18.003906 107.332031 C 19.3125 104.558594 20.691406 101.820312 22.140625 99.113281 C 23.585938 96.40625 25.097656 93.738281 26.675781 91.105469 C 28.253906 88.472656 29.894531 85.882812 31.597656 83.332031 C 33.304688 80.777344 35.070312 78.269531 36.898438 75.804688 C 38.726562 73.339844 40.613281 70.921875 42.558594 68.550781 C 44.507812 66.179688 46.511719 63.855469 48.570312 61.582031 C 50.632812 59.308594 52.746094 57.085938 54.917969 54.917969 C 57.085938 52.746094 59.308594 50.632812 61.582031 48.570312 C 63.855469 46.511719 66.179688 44.507812 68.550781 42.558594 C 70.921875 40.613281 73.339844 38.726562 75.804688 36.898438 C 78.269531 35.070312 80.777344 33.304688 83.332031 31.597656 C 85.882812 29.894531 88.472656 28.253906 91.105469 26.675781 C 93.738281 25.097656 96.40625 23.585938 99.113281 22.140625 C 101.820312 20.691406 104.558594 19.3125 107.332031 18.003906 C 110.105469 16.691406 112.910156 15.445312 115.746094 14.273438 C 118.582031 13.097656 121.445312 11.996094 124.332031 10.960938 C 127.222656 9.925781 130.136719 8.964844 133.070312 8.074219 C 136.007812 7.183594 138.964844 6.363281 141.941406 5.617188 C 144.917969 4.875 147.910156 4.203125 150.921875 3.601562 C 153.929688 3.003906 156.953125 2.480469 159.988281 2.03125 C 163.023438 1.578125 166.066406 1.203125 169.121094 0.902344 C 172.175781 0.601562 175.234375 0.375 178.300781 0.226562 C 181.363281 0.0742188 184.429688 0 187.5 0 C 190.570312 0 193.636719 0.0742188 196.699219 0.226562 C 199.765625 0.375 202.824219 0.601562 205.878906 0.902344 C 208.933594 1.203125 211.976562 1.578125 215.011719 2.03125 C 218.046875 2.480469 221.070312 3.003906 224.078125 3.601562 C 227.089844 4.203125 230.082031 4.875 233.058594 5.617188 C 236.035156 6.363281 238.992188 7.183594 241.929688 8.074219 C 244.863281 8.964844 247.777344 9.925781 250.667969 10.960938 C 253.554688 11.996094 256.417969 13.097656 259.253906 14.273438 C 262.089844 15.445312 264.890625 16.691406 267.667969 18.003906 C 270.441406 19.3125 273.179688 20.691406 275.886719 22.140625 C 278.59375 23.585938 281.261719 25.097656 283.894531 26.675781 C 286.527344 28.253906 289.117188 29.894531 291.667969 31.597656 C 294.222656 33.304688 296.730469 35.070312 299.195312 36.898438 C 301.660156 38.726562 304.078125 40.613281 306.449219 42.558594 C 308.820312 44.507812 311.144531 46.511719 313.417969 48.570312 C 315.691406 50.632812 317.914062 52.746094 320.082031 54.917969 C 322.253906 57.085938 324.367188 59.308594 326.429688 61.582031 C 328.488281 63.855469 330.492188 66.179688 332.4375 68.550781 C 334.386719 70.921875 336.273438 73.339844 338.101562 75.804688 C 339.929688 78.269531 341.695312 80.777344 343.402344 83.332031 C 345.105469 85.882812 346.746094 88.472656 348.324219 91.105469 C 349.902344 93.738281 351.414062 96.40625 352.859375 99.113281 C 354.308594 101.820312 355.6875 104.558594 356.996094 107.332031 C 358.308594 110.105469 359.554688 112.910156 360.726562 115.746094 C 361.902344 118.582031 363.003906 121.445312 364.039062 124.332031 C 365.074219 127.222656 366.035156 130.136719 366.925781 133.070312 C 367.816406 136.007812 368.636719 138.964844 369.378906 141.941406 C 370.125 144.917969 370.796875 147.910156 371.398438 150.921875 C 371.996094 153.929688 372.519531 156.953125 372.96875 159.988281 C 373.421875 163.023438 373.796875 166.066406 374.097656 169.121094 C 374.398438 172.175781 374.625 175.234375 374.773438 178.300781 C 374.925781 181.363281 375 184.429688 375 187.5 Z M 375 187.5 " fill-opacity="1" fill-rule="nonzero"/><path fill="#152639" d="M 352.851562 187.5 C 352.851562 190.207031 352.785156 192.910156 352.652344 195.613281 C 352.519531 198.316406 352.320312 201.015625 352.054688 203.707031 C 351.789062 206.398438 351.457031 209.085938 351.0625 211.761719 C 350.664062 214.4375 350.203125 217.105469 349.671875 219.757812 C 349.144531 222.414062 348.550781 225.050781 347.894531 227.675781 C 347.238281 230.300781 346.515625 232.910156 345.730469 235.5 C 344.945312 238.089844 344.097656 240.65625 343.183594 243.203125 C 342.273438 245.753906 341.300781 248.277344 340.265625 250.777344 C 339.226562 253.277344 338.132812 255.75 336.976562 258.195312 C 335.816406 260.644531 334.601562 263.058594 333.324219 265.445312 C 332.050781 267.832031 330.71875 270.1875 329.324219 272.507812 C 327.933594 274.828125 326.488281 277.113281 324.984375 279.363281 C 323.480469 281.613281 321.921875 283.824219 320.3125 286 C 318.699219 288.171875 317.035156 290.304688 315.316406 292.398438 C 313.601562 294.488281 311.832031 296.539062 310.015625 298.542969 C 308.199219 300.546875 306.332031 302.507812 304.421875 304.421875 C 302.507812 306.332031 300.546875 308.199219 298.542969 310.015625 C 296.539062 311.832031 294.488281 313.601562 292.398438 315.316406 C 290.304688 317.035156 288.171875 318.699219 286 320.3125 C 283.824219 321.921875 281.613281 323.480469 279.363281 324.984375 C 277.113281 326.488281 274.828125 327.933594 272.507812 329.324219 C 270.1875 330.71875 267.832031 332.050781 265.445312 333.324219 C 263.058594 334.601562 260.644531 335.816406 258.195312 336.976562 C 255.75 338.132812 253.277344 339.226562 250.777344 340.265625 C 248.277344 341.300781 245.753906 342.273438 243.203125 343.183594 C 240.65625 344.097656 238.089844 344.945312 235.5 345.730469 C 232.910156 346.515625 230.300781 347.238281 227.675781 347.894531 C 225.050781 348.550781 222.414062 349.144531 219.757812 349.671875 C 217.105469 350.203125 214.4375 350.664062 211.761719 351.0625 C 209.085938 351.457031 206.398438 351.789062 203.707031 352.054688 C 201.015625 352.320312 198.316406 352.519531 195.613281 352.652344 C 192.910156 352.785156 190.207031 352.851562 187.5 352.851562 C 184.792969 352.851562 182.089844 352.785156 179.386719 352.652344 C 176.683594 352.519531 173.984375 352.320312 171.292969 352.054688 C 168.601562 351.789062 165.914062 351.457031 163.238281 351.0625 C 160.5625 350.664062 157.894531 350.203125 155.242188 349.671875 C 152.585938 349.144531 149.949219 348.550781 147.324219 347.894531 C 144.699219 347.238281 142.089844 346.515625 139.5 345.730469 C 136.910156 344.945312 134.34375 344.097656 131.796875 343.183594 C 129.246094 342.273438 126.722656 341.300781 124.222656 340.265625 C 121.722656 339.226562 119.25 338.132812 116.804688 336.976562 C 114.355469 335.816406 111.941406 334.601562 109.554688 333.324219 C 107.167969 332.050781 104.8125 330.71875 102.492188 329.324219 C 100.171875 327.933594 97.886719 326.488281 95.636719 324.984375 C 93.386719 323.480469 91.175781 321.921875 89 320.3125 C 86.828125 318.699219 84.695312 317.035156 82.601562 315.316406 C 80.511719 313.601562 78.460938 311.832031 76.457031 310.015625 C 74.453125 308.199219 72.492188 306.332031 70.578125 304.421875 C 68.664062 302.507812 66.800781 300.546875 64.984375 298.542969 C 63.164062 296.539062 61.398438 294.488281 59.683594 292.398438 C 57.964844 290.304688 56.300781 288.171875 54.6875 286 C 53.078125 283.824219 51.519531 281.613281 50.015625 279.363281 C 48.511719 277.113281 47.066406 274.828125 45.675781 272.507812 C 44.28125 270.1875 42.949219 267.832031 41.671875 265.445312 C 40.398438 263.058594 39.183594 260.644531 38.023438 258.195312 C 36.867188 255.75 35.773438 253.277344 34.734375 250.777344 C 33.699219 248.277344 32.726562 245.753906 31.816406 243.203125 C 30.902344 240.65625 30.054688 238.089844 29.269531 235.5 C 28.484375 232.910156 27.761719 230.300781 27.105469 227.675781 C 26.445312 225.050781 25.855469 222.414062 25.328125 219.757812 C 24.796875 217.105469 24.335938 214.4375 23.9375 211.761719 C 23.542969 209.085938 23.210938 206.398438 22.945312 203.707031 C 22.679688 201.015625 22.480469 198.316406 22.347656 195.613281 C 22.214844 192.910156 22.148438 190.207031 22.148438 187.5 C 22.148438 184.792969 22.214844 182.089844 22.347656 179.386719 C 22.480469 176.683594 22.679688 173.984375 22.945312 171.292969 C 23.210938 168.601562 23.542969 165.914062 23.9375 163.238281 C 24.335938 160.5625 24.796875 157.894531 25.328125 155.242188 C 25.855469 152.585938 26.445312 149.949219 27.105469 147.324219 C 27.761719 144.699219 28.484375 142.089844 29.269531 139.5 C 30.054688 136.910156 30.902344 134.34375 31.816406 131.796875 C 32.726562 129.246094 33.699219 126.722656 34.734375 124.222656 C 35.773438 121.722656 36.867188 119.25 38.023438 116.804688 C 39.183594 114.355469 40.398438 111.941406 41.671875 109.554688 C 42.949219 107.167969 44.28125 104.8125 45.675781 102.492188 C 47.066406 100.171875 48.511719 97.886719 50.015625 95.636719 C 51.519531 93.386719 53.078125 91.175781 54.6875 89 C 56.300781 86.828125 57.964844 84.695312 59.683594 82.601562 C 61.398438 80.511719 63.164062 78.460938 64.984375 76.457031 C 66.800781 74.453125 68.664062 72.492188 70.578125 70.578125 C 72.492188 68.664062 74.453125 66.800781 76.457031 64.984375 C 78.460938 63.164062 80.511719 61.398438 82.601562 59.683594 C 84.695312 57.964844 86.828125 56.300781 89 54.6875 C 91.175781 53.078125 93.386719 51.519531 95.636719 50.015625 C 97.886719 48.511719 100.171875 47.066406 102.492188 45.675781 C 104.8125 44.28125 107.167969 42.949219 109.554688 41.671875 C 111.941406 40.398438 114.355469 39.183594 116.804688 38.023438 C 119.25 36.867188 121.722656 35.773438 124.222656 34.734375 C 126.722656 33.699219 129.246094 32.726562 131.796875 31.816406 C 134.34375 30.902344 136.910156 30.054688 139.5 29.269531 C 142.089844 28.484375 144.699219 27.761719 147.324219 27.105469 C 149.949219 26.445312 152.585938 25.855469 155.242188 25.328125 C 157.894531 24.796875 160.5625 24.335938 163.238281 23.9375 C 165.914062 23.542969 168.601562 23.210938 171.292969 22.945312 C 173.984375 22.679688 176.683594 22.480469 179.386719 22.347656 C 182.089844 22.214844 184.792969 22.148438 187.5 22.148438 C 190.207031 22.148438 192.910156 22.214844 195.613281 22.347656 C 198.316406 22.480469 201.015625 22.679688 203.707031 22.945312 C 206.398438 23.210938 209.085938 23.542969 211.761719 23.9375 C 214.4375 24.335938 217.105469 24.796875 219.757812 25.328125 C 222.414062 25.855469 225.050781 26.445312 227.675781 27.105469 C 230.300781 27.761719 232.910156 28.484375 235.5 29.269531 C 238.089844 30.054688 240.65625 30.902344 243.203125 31.816406 C 245.753906 32.726562 248.277344 33.699219 250.777344 34.734375 C 253.277344 35.773438 255.75 36.867188 258.195312 38.023438 C 260.644531 39.183594 263.058594 40.398438 265.445312 41.671875 C 267.832031 42.949219 270.1875 44.28125 272.507812 45.675781 C 274.828125 47.066406 277.113281 48.511719 279.363281 50.015625 C 281.613281 51.519531 283.824219 53.078125 286 54.6875 C 288.171875 56.300781 290.304688 57.964844 292.398438 59.683594 C 294.488281 61.398438 296.539062 63.164062 298.542969 64.984375 C 300.546875 66.800781 302.507812 68.664062 304.421875 70.578125 C 306.332031 72.492188 308.199219 74.453125 310.015625 76.457031 C 311.832031 78.460938 313.601562 80.511719 315.316406 82.601562 C 317.035156 84.695312 318.699219 86.828125 320.3125 89 C 321.921875 91.175781 323.480469 93.386719 324.984375 95.636719 C 326.488281 97.886719 327.933594 100.171875 329.324219 102.492188 C 330.71875 104.8125 332.050781 107.167969 333.324219 109.554688 C 334.601562 111.941406 335.816406 114.355469 336.976562 116.804688 C 338.132812 119.25 339.226562 121.722656 340.265625 124.222656 C 341.300781 126.722656 342.273438 129.246094 343.183594 131.796875 C 344.097656 134.34375 344.945312 136.910156 345.730469 139.5 C 346.515625 142.089844 347.238281 144.699219 347.894531 147.324219 C 348.550781 149.949219 349.144531 152.585938 349.671875 155.242188 C 350.203125 157.894531 350.664062 160.5625 351.0625 163.238281 C 351.457031 165.914062 351.789062 168.601562 352.054688 171.292969 C 352.320312 173.984375 352.519531 176.683594 352.652344 179.386719 C 352.785156 182.089844 352.851562 184.792969 352.851562 187.5 Z M 352.851562 187.5 " fill-opacity="1" fill-rule="nonzero"/><path fill="#ececec" d="M 333.308594 187.5 C 333.308594 189.886719 333.25 192.269531 333.132812 194.65625 C 333.015625 197.039062 332.839844 199.417969 332.605469 201.792969 C 332.371094 204.167969 332.078125 206.535156 331.730469 208.894531 C 331.378906 211.253906 330.972656 213.605469 330.503906 215.945312 C 330.039062 218.285156 329.515625 220.613281 328.9375 222.929688 C 328.359375 225.242188 327.722656 227.542969 327.027344 229.824219 C 326.335938 232.109375 325.585938 234.375 324.785156 236.621094 C 323.980469 238.867188 323.121094 241.09375 322.207031 243.296875 C 321.292969 245.503906 320.328125 247.683594 319.308594 249.839844 C 318.289062 251.996094 317.214844 254.128906 316.089844 256.234375 C 314.964844 258.335938 313.789062 260.414062 312.5625 262.460938 C 311.335938 264.507812 310.058594 266.523438 308.734375 268.507812 C 307.410156 270.488281 306.035156 272.441406 304.613281 274.355469 C 303.191406 276.273438 301.722656 278.15625 300.210938 280 C 298.695312 281.84375 297.136719 283.648438 295.535156 285.417969 C 293.933594 287.1875 292.289062 288.914062 290.601562 290.601562 C 288.914062 292.289062 287.1875 293.933594 285.417969 295.535156 C 283.648438 297.136719 281.84375 298.695312 280 300.210938 C 278.15625 301.722656 276.273438 303.191406 274.355469 304.613281 C 272.441406 306.035156 270.488281 307.410156 268.507812 308.734375 C 266.523438 310.058594 264.507812 311.335938 262.460938 312.5625 C 260.414062 313.789062 258.335938 314.964844 256.234375 316.089844 C 254.128906 317.214844 251.996094 318.289062 249.839844 319.308594 C 247.683594 320.328125 245.503906 321.292969 243.296875 322.207031 C 241.09375 323.121094 238.867188 323.980469 236.621094 324.785156 C 234.375 325.585938 232.109375 326.335938 229.824219 327.027344 C 227.542969 327.722656 225.242188 328.359375 222.929688 328.9375 C 220.613281 329.515625 218.285156 330.039062 215.945312 330.503906 C 213.605469 330.972656 211.253906 331.378906 208.894531 331.730469 C 206.535156 332.078125 204.167969 332.371094 201.792969 332.605469 C 199.417969 332.839844 197.039062 333.015625 194.65625 333.132812 C 192.269531 333.25 189.886719 333.308594 187.5 333.308594 C 185.113281 333.308594 182.730469 333.25 180.34375 333.132812 C 177.960938 333.015625 175.582031 332.839844 173.207031 332.605469 C 170.832031 332.371094 168.464844 332.078125 166.105469 331.730469 C 163.746094 331.378906 161.394531 330.972656 159.054688 330.503906 C 156.714844 330.039062 154.386719 329.515625 152.070312 328.9375 C 149.757812 328.359375 147.457031 327.722656 145.175781 327.027344 C 142.890625 326.335938 140.625 325.585938 138.378906 324.785156 C 136.132812 323.980469 133.90625 323.121094 131.703125 322.207031 C 129.496094 321.292969 127.316406 320.328125 125.160156 319.308594 C 123.003906 318.289062 120.871094 317.214844 118.765625 316.089844 C 116.664062 314.964844 114.585938 313.789062 112.539062 312.5625 C 110.492188 311.335938 108.476562 310.058594 106.492188 308.734375 C 104.511719 307.410156 102.558594 306.035156 100.644531 304.613281 C 98.726562 303.191406 96.84375 301.722656 95 300.210938 C 93.15625 298.695312 91.351562 297.136719 89.582031 295.535156 C 87.8125 293.933594 86.085938 292.289062 84.398438 290.601562 C 82.710938 288.914062 81.066406 287.1875 79.464844 285.417969 C 77.863281 283.648438 76.304688 281.84375 74.789062 280 C 73.277344 278.15625 71.808594 276.273438 70.386719 274.355469 C 68.964844 272.441406 67.589844 270.488281 66.265625 268.507812 C 64.941406 266.523438 63.664062 264.507812 62.4375 262.460938 C 61.210938 260.414062 60.035156 258.335938 58.910156 256.234375 C 57.785156 254.128906 56.710938 251.996094 55.691406 249.839844 C 54.671875 247.683594 53.703125 245.503906 52.792969 243.296875 C 51.878906 241.09375 51.019531 238.867188 50.214844 236.621094 C 49.414062 234.375 48.664062 232.109375 47.972656 229.824219 C 47.277344 227.542969 46.640625 225.242188 46.0625 222.929688 C 45.484375 220.613281 44.960938 218.285156 44.496094 215.945312 C 44.027344 213.605469 43.621094 211.253906 43.269531 208.894531 C 42.921875 206.535156 42.628906 204.167969 42.394531 201.792969 C 42.160156 199.417969 41.984375 197.039062 41.867188 194.65625 C 41.75 192.269531 41.691406 189.886719 41.691406 187.5 C 41.691406 185.113281 41.75 182.730469 41.867188 180.34375 C 41.984375 177.960938 42.160156 175.582031 42.394531 173.207031 C 42.628906 170.832031 42.921875 168.464844 43.269531 166.105469 C 43.621094 163.746094 44.027344 161.394531 44.496094 159.054688 C 44.960938 156.714844 45.484375 154.386719 46.0625 152.070312 C 46.640625 149.757812 47.277344 147.457031 47.972656 145.175781 C 48.664062 142.890625 49.414062 140.625 50.214844 138.378906 C 51.019531 136.132812 51.878906 133.90625 52.792969 131.703125 C 53.703125 129.496094 54.671875 127.316406 55.691406 125.160156 C 56.710938 123.003906 57.785156 120.871094 58.910156 118.765625 C 60.035156 116.664062 61.210938 114.585938 62.4375 112.539062 C 63.664062 110.492188 64.941406 108.476562 66.265625 106.492188 C 67.589844 104.511719 68.964844 102.558594 70.386719 100.644531 C 71.808594 98.726562 73.277344 96.84375 74.789062 95 C 76.304688 93.15625 77.863281 91.351562 79.464844 89.582031 C 81.066406 87.8125 82.710938 86.085938 84.398438 84.398438 C 86.085938 82.710938 87.8125 81.066406 89.582031 79.464844 C 91.351562 77.863281 93.15625 76.304688 95 74.789062 C 96.84375 73.277344 98.726562 71.808594 100.644531 70.386719 C 102.558594 68.964844 104.511719 67.589844 106.492188 66.265625 C 108.476562 64.941406 110.492188 63.664062 112.539062 62.4375 C 114.585938 61.210938 116.664062 60.035156 118.765625 58.910156 C 120.871094 57.785156 123.003906 56.710938 125.160156 55.691406 C 127.316406 54.671875 129.496094 53.703125 131.703125 52.792969 C 133.90625 51.878906 136.132812 51.019531 138.378906 50.214844 C 140.625 49.414062 142.890625 48.664062 145.175781 47.972656 C 147.457031 47.277344 149.757812 46.640625 152.070312 46.0625 C 154.386719 45.484375 156.714844 44.960938 159.054688 44.496094 C 161.394531 44.027344 163.746094 43.621094 166.105469 43.269531 C 168.464844 42.921875 170.832031 42.628906 173.207031 42.394531 C 175.582031 42.160156 177.960938 41.984375 180.34375 41.867188 C 182.730469 41.75 185.113281 41.691406 187.5 41.691406 C 189.886719 41.691406 192.269531 41.75 194.65625 41.867188 C 197.039062 41.984375 199.417969 42.160156 201.792969 42.394531 C 204.167969 42.628906 206.535156 42.921875 208.894531 43.269531 C 211.253906 43.621094 213.605469 44.027344 215.945312 44.496094 C 218.285156 44.960938 220.613281 45.484375 222.929688 46.0625 C 225.242188 46.640625 227.542969 47.277344 229.824219 47.972656 C 232.109375 48.664062 234.375 49.414062 236.621094 50.214844 C 238.867188 51.019531 241.09375 51.878906 243.296875 52.792969 C 245.503906 53.703125 247.683594 54.671875 249.839844 55.691406 C 251.996094 56.710938 254.128906 57.785156 256.234375 58.910156 C 258.335938 60.035156 260.414062 61.210938 262.460938 62.4375 C 264.507812 63.664062 266.523438 64.941406 268.507812 66.265625 C 270.488281 67.589844 272.441406 68.964844 274.355469 70.386719 C 276.273438 71.808594 278.15625 73.277344 280 74.789062 C 281.84375 76.304688 283.648438 77.863281 285.417969 79.464844 C 287.1875 81.066406 288.914062 82.710938 290.601562 84.398438 C 292.289062 86.085938 293.933594 87.8125 295.535156 89.582031 C 297.136719 91.351562 298.695312 93.15625 300.210938 95 C 301.722656 96.84375 303.191406 98.726562 304.613281 100.644531 C 306.035156 102.558594 307.410156 104.511719 308.734375 106.492188 C 310.058594 108.476562 311.335938 110.492188 312.5625 112.539062 C 313.789062 114.585938 314.964844 116.664062 316.089844 118.765625 C 317.214844 120.871094 318.289062 123.003906 319.308594 125.160156 C 320.328125 127.316406 321.292969 129.496094 322.207031 131.703125 C 323.121094 133.90625 323.980469 136.132812 324.785156 138.378906 C 325.585938 140.625 326.335938 142.890625 327.027344 145.175781 C 327.722656 147.457031 328.359375 149.757812 328.9375 152.070312 C 329.515625 154.386719 330.039062 156.714844 330.503906 159.054688 C 330.972656 161.394531 331.378906 163.746094 331.730469 166.105469 C 332.078125 168.464844 332.371094 170.832031 332.605469 173.207031 C 332.839844 175.582031 333.015625 177.960938 333.132812 180.34375 C 333.25 182.730469 333.308594 185.113281 333.308594 187.5 Z M 333.308594 187.5 " fill-opacity="1" fill-rule="nonzero"/><path fill="#152639" d="M 207.160156 288.652344 L 113.117188 288.652344 C 105.0625 288.652344 97.480469 284.746094 94.164062 279.058594 C 92.386719 275.859375 91.085938 270.765625 94.992188 264.132812 C 95.113281 264.015625 95.113281 263.898438 95.230469 263.777344 L 144.742188 207.398438 L 144.742188 127.449219 C 144.742188 126.027344 145.808594 125.078125 147.109375 125.078125 L 173.167969 125.078125 C 174.472656 125.078125 175.535156 126.027344 175.535156 127.449219 L 175.535156 207.398438 L 206.6875 242.695312 L 206.6875 242.8125 L 206.808594 242.8125 L 224.808594 263.304688 C 224.808594 263.425781 224.929688 263.542969 225.046875 263.660156 C 229.191406 270.648438 227.890625 275.980469 225.996094 279.296875 C 222.796875 284.980469 215.335938 288.652344 207.160156 288.652344 Z M 210.832031 278.703125 C 214.03125 278.703125 216.519531 276.097656 216.519531 273.019531 C 216.519531 269.820312 214.03125 267.332031 210.832031 267.332031 C 207.753906 267.332031 205.148438 269.820312 205.148438 273.019531 C 205.148438 276.097656 207.753906 278.703125 210.832031 278.703125 Z M 210.832031 269.703125 C 212.609375 269.703125 214.148438 271.242188 214.148438 273.019531 C 214.148438 274.792969 212.609375 276.335938 210.832031 276.335938 C 209.058594 276.335938 207.515625 274.792969 207.515625 273.019531 C 207.515625 271.242188 209.058594 269.703125 210.832031 269.703125 Z M 190.460938 273.136719 C 193.660156 273.136719 196.148438 270.53125 196.148438 267.449219 C 196.148438 264.371094 193.660156 261.765625 190.460938 261.765625 C 187.382812 261.765625 184.777344 264.371094 184.777344 267.449219 C 184.777344 270.53125 187.382812 273.136719 190.460938 273.136719 Z M 190.460938 264.132812 C 192.355469 264.132812 193.777344 265.675781 193.777344 267.449219 C 193.777344 269.226562 192.355469 270.765625 190.460938 270.765625 C 188.683594 270.765625 187.144531 269.226562 187.144531 267.449219 C 187.144531 265.675781 188.683594 264.132812 190.460938 264.132812 Z M 167.007812 279.769531 C 170.089844 279.769531 172.695312 277.164062 172.695312 273.964844 C 172.695312 270.886719 170.089844 268.28125 167.007812 268.28125 C 163.8125 268.28125 161.324219 270.886719 161.324219 273.964844 C 161.324219 277.164062 163.8125 279.769531 167.007812 279.769531 Z M 167.007812 270.648438 C 168.785156 270.648438 170.324219 272.1875 170.324219 273.964844 C 170.324219 275.859375 168.785156 277.402344 167.007812 277.402344 C 165.113281 277.402344 163.691406 275.859375 163.691406 273.964844 C 163.691406 272.1875 165.113281 270.648438 167.007812 270.648438 Z M 141.1875 268.28125 C 144.859375 268.28125 147.9375 265.199219 147.9375 261.527344 C 147.9375 257.738281 144.859375 254.777344 141.1875 254.777344 C 137.398438 254.777344 134.316406 257.738281 134.316406 261.527344 C 134.316406 265.199219 137.398438 268.28125 141.1875 268.28125 Z M 141.1875 257.027344 C 143.554688 257.027344 145.570312 259.042969 145.570312 261.527344 C 145.570312 263.898438 143.554688 265.910156 141.1875 265.910156 C 138.699219 265.910156 136.6875 263.898438 136.6875 261.527344 C 136.6875 259.042969 138.699219 257.027344 141.1875 257.027344 Z M 116.667969 276.453125 C 120.339844 276.453125 123.421875 273.375 123.421875 269.582031 C 123.421875 265.910156 120.339844 262.832031 116.667969 262.832031 C 112.878906 262.832031 109.917969 265.910156 109.917969 269.582031 C 109.917969 273.375 112.878906 276.453125 116.667969 276.453125 Z M 116.667969 265.199219 C 119.039062 265.199219 121.050781 267.214844 121.050781 269.582031 C 121.050781 272.070312 119.039062 273.964844 116.667969 273.964844 C 114.183594 273.964844 112.285156 272.070312 112.285156 269.582031 C 112.285156 267.214844 114.183594 265.199219 116.667969 265.199219 Z M 129.222656 232.273438 C 140.59375 236.0625 150.542969 241.75 158.835938 249.445312 C 173.167969 262.476562 189.632812 254.183594 201.59375 244.117188 L 171.390625 209.886719 C 171.035156 209.414062 170.800781 208.820312 170.800781 208.226562 L 170.800781 129.816406 L 149.480469 129.816406 L 149.480469 208.226562 C 149.480469 208.820312 149.359375 209.414062 148.886719 209.886719 Z M 147.226562 208.226562 Z M 147.226562 208.226562 " fill-opacity="1" fill-rule="evenodd"/><path fill="#40bfbc" d="M 176.128906 129.816406 L 144.03125 129.816406 C 142.726562 129.816406 141.660156 128.75 141.660156 127.449219 L 141.660156 122.945312 L 178.5 122.945312 L 178.5 127.449219 C 178.5 128.75 177.433594 129.816406 176.128906 129.816406 Z M 176.128906 129.816406 " fill-opacity="1" fill-rule="evenodd"/><path fill="#40bfbc" d="M 149.480469 234.285156 C 145.214844 234.285156 141.78125 230.851562 141.78125 226.585938 C 141.78125 222.324219 145.214844 218.886719 149.480469 218.886719 C 153.742188 218.886719 157.179688 222.324219 157.179688 226.585938 C 157.179688 230.851562 153.742188 234.285156 149.480469 234.285156 Z M 169.734375 230.851562 C 166.179688 230.851562 163.21875 228.007812 163.21875 224.457031 C 163.21875 220.902344 166.179688 217.941406 169.734375 217.941406 C 173.285156 217.941406 176.128906 220.902344 176.128906 224.457031 C 176.128906 228.007812 173.285156 230.851562 169.734375 230.851562 Z M 178.851562 251.222656 C 174.472656 251.222656 170.800781 247.671875 170.800781 243.289062 C 170.800781 238.90625 174.472656 235.234375 178.851562 235.234375 C 183.234375 235.234375 186.789062 238.90625 186.789062 243.289062 C 186.789062 247.671875 183.234375 251.222656 178.851562 251.222656 Z M 178.851562 251.222656 " fill-opacity="1" fill-rule="evenodd"/><path fill="#40bfbc" d="M 179.207031 120.460938 L 140.949219 120.460938 C 139.648438 120.460938 138.582031 119.394531 138.582031 118.089844 L 138.582031 115.128906 C 138.582031 110.390625 142.492188 106.484375 147.226562 106.484375 L 173.050781 106.484375 C 177.789062 106.484375 181.578125 110.390625 181.578125 115.128906 L 181.578125 118.089844 C 181.578125 119.394531 180.511719 120.460938 179.207031 120.460938 Z M 179.207031 120.460938 " fill-opacity="1" fill-rule="evenodd"/><path fill="#40bfbc" d="M 173.167969 139.410156 L 167.246094 139.410156 C 165.941406 139.410156 164.875 138.34375 164.875 137.042969 C 164.875 135.738281 165.941406 134.671875 167.246094 134.671875 L 173.167969 134.671875 C 174.472656 134.671875 175.535156 135.738281 175.535156 137.042969 C 175.535156 138.34375 174.472656 139.410156 173.167969 139.410156 Z M 173.167969 139.410156 " fill-opacity="1" fill-rule="evenodd"/><path fill="#40bfbc" d="M 173.167969 156.941406 L 167.246094 156.941406 C 165.941406 156.941406 164.875 155.992188 164.875 154.570312 C 164.875 153.269531 165.941406 152.203125 167.246094 152.203125 L 173.167969 152.203125 C 174.472656 152.203125 175.535156 153.269531 175.535156 154.570312 C 175.535156 155.992188 174.472656 156.941406 173.167969 156.941406 Z M 173.167969 156.941406 " fill-opacity="1" fill-rule="evenodd"/><path fill="#40bfbc" d="M 173.167969 174.589844 L 167.246094 174.589844 C 165.941406 174.589844 164.875 173.523438 164.875 172.21875 C 164.875 170.917969 165.941406 169.851562 167.246094 169.851562 L 173.167969 169.851562 C 174.472656 169.851562 175.535156 170.917969 175.535156 172.21875 C 175.535156 173.523438 174.472656 174.589844 173.167969 174.589844 Z M 173.167969 174.589844 " fill-opacity="1" fill-rule="evenodd"/><path fill="#40bfbc" d="M 173.167969 192.238281 L 167.246094 192.238281 C 165.941406 192.238281 164.875 191.171875 164.875 189.867188 C 164.875 188.566406 165.941406 187.5 167.246094 187.5 L 173.167969 187.5 C 174.472656 187.5 175.535156 188.566406 175.535156 189.867188 C 175.535156 191.171875 174.472656 192.238281 173.167969 192.238281 Z M 173.167969 192.238281 " fill-opacity="1" fill-rule="evenodd"/><path fill="#40bfbc" d="M 173.167969 148.175781 L 158.953125 148.175781 C 157.652344 148.175781 156.585938 147.109375 156.585938 145.808594 C 156.585938 144.503906 157.652344 143.4375 158.953125 143.4375 L 173.167969 143.4375 C 174.472656 143.4375 175.535156 144.503906 175.535156 145.808594 C 175.535156 147.109375 174.472656 148.175781 173.167969 148.175781 Z M 173.167969 148.175781 " fill-opacity="1" fill-rule="evenodd"/><path fill="#40bfbc" d="M 173.167969 165.824219 L 158.953125 165.824219 C 157.652344 165.824219 156.585938 164.757812 156.585938 163.457031 C 156.585938 162.152344 157.652344 161.085938 158.953125 161.085938 L 173.167969 161.085938 C 174.472656 161.085938 175.535156 162.152344 175.535156 163.457031 C 175.535156 164.757812 174.472656 165.824219 173.167969 165.824219 Z M 173.167969 165.824219 " fill-opacity="1" fill-rule="evenodd"/><path fill="#40bfbc" d="M 173.167969 183.355469 L 158.953125 183.355469 C 157.652344 183.355469 156.585938 182.289062 156.585938 180.984375 C 156.585938 179.683594 157.652344 178.617188 158.953125 178.617188 L 173.167969 178.617188 C 174.472656 178.617188 175.535156 179.683594 175.535156 180.984375 C 175.535156 182.289062 174.472656 183.355469 173.167969 183.355469 Z M 173.167969 183.355469 " fill-opacity="1" fill-rule="evenodd"/><path fill="#40bfbc" d="M 173.167969 201.003906 L 158.953125 201.003906 C 157.652344 201.003906 156.585938 199.9375 156.585938 198.632812 C 156.585938 197.332031 157.652344 196.265625 158.953125 196.265625 L 173.167969 196.265625 C 174.472656 196.265625 175.535156 197.332031 175.535156 198.632812 C 175.535156 199.9375 174.472656 201.003906 173.167969 201.003906 Z M 173.167969 201.003906 " fill-opacity="1" fill-rule="evenodd"/><path fill="#40bfbc" d="M 207.871094 197.210938 C 207.28125 197.210938 206.808594 197.09375 206.453125 196.738281 L 187.738281 183.234375 C 187.144531 182.761719 186.789062 182.050781 186.789062 181.339844 L 186.789062 176.957031 C 186.789062 175.65625 187.855469 174.589844 189.160156 174.589844 C 191.644531 174.589844 193.539062 172.695312 193.539062 170.207031 C 193.539062 167.71875 191.644531 165.707031 189.160156 165.707031 C 187.855469 165.707031 186.789062 164.640625 186.789062 163.335938 L 186.789062 159.074219 C 186.789062 158.363281 187.144531 157.652344 187.738281 157.179688 L 206.453125 143.554688 C 206.925781 143.203125 207.636719 143.082031 208.226562 143.203125 C 208.820312 143.320312 209.414062 143.675781 209.769531 144.148438 C 210.597656 145.332031 211.898438 145.925781 213.320312 145.925781 C 214.742188 145.925781 216.046875 145.332031 216.875 144.148438 C 217.230469 143.675781 217.820312 143.320312 218.414062 143.203125 C 219.007812 143.082031 219.71875 143.203125 220.191406 143.554688 L 238.789062 157.179688 C 239.496094 157.652344 239.851562 158.363281 239.851562 159.074219 L 239.851562 181.222656 C 239.851562 182.050781 239.496094 182.761719 238.789062 183.234375 L 220.191406 196.738281 C 219.71875 197.09375 219.007812 197.332031 218.414062 197.210938 C 217.820312 197.09375 217.230469 196.738281 216.875 196.265625 C 216.046875 195.082031 214.742188 194.371094 213.320312 194.371094 C 211.898438 194.371094 210.597656 195.082031 209.769531 196.265625 C 209.414062 196.738281 208.820312 197.09375 208.226562 197.210938 C 208.109375 197.210938 207.992188 197.210938 207.871094 197.210938 Z M 213.320312 189.632812 C 215.453125 189.632812 217.46875 190.460938 219.125 191.765625 L 235.117188 180.039062 L 235.117188 160.257812 L 219.125 148.648438 C 217.46875 149.953125 215.453125 150.664062 213.320312 150.664062 C 211.1875 150.664062 209.175781 149.953125 207.515625 148.648438 L 191.527344 160.257812 L 191.527344 161.324219 C 195.4375 162.390625 198.398438 165.941406 198.398438 170.207031 C 198.398438 174.472656 195.4375 178.023438 191.527344 179.089844 L 191.527344 180.039062 L 207.515625 191.765625 C 209.175781 190.460938 211.1875 189.632812 213.320312 189.632812 Z M 213.320312 189.632812 " fill-opacity="1" fill-rule="evenodd"/><path fill="#40bfbc" d="M 256.082031 197.210938 C 255.605469 197.210938 255.132812 197.09375 254.660156 196.738281 L 236.0625 183.234375 C 235.46875 182.761719 235.117188 182.050781 235.117188 181.339844 L 235.117188 159.074219 C 235.117188 158.363281 235.46875 157.652344 236.0625 157.179688 L 260.226562 139.648438 C 261.054688 139.054688 262.121094 139.054688 263.070312 139.648438 L 281.664062 153.152344 C 282.730469 153.980469 282.96875 155.402344 282.257812 156.46875 C 281.425781 157.53125 279.886719 157.769531 278.941406 157.058594 L 261.648438 144.503906 L 239.851562 160.257812 L 239.851562 180.039062 L 257.5 192.949219 C 258.566406 193.660156 258.804688 195.199219 258.09375 196.265625 C 257.5 196.855469 256.789062 197.210938 256.082031 197.210938 Z M 256.082031 197.210938 " fill-opacity="1" fill-rule="evenodd"/><path fill="#40bfbc" d="M 261.648438 207.992188 C 256.554688 207.992188 252.410156 203.964844 252.410156 198.871094 C 252.410156 193.777344 256.554688 189.632812 261.648438 189.632812 C 266.621094 189.632812 270.765625 193.777344 270.765625 198.871094 C 270.765625 203.964844 266.621094 207.992188 261.648438 207.992188 Z M 213.320312 207.992188 C 208.226562 207.992188 204.199219 203.964844 204.199219 198.871094 C 204.199219 193.777344 208.226562 189.632812 213.320312 189.632812 C 218.414062 189.632812 222.441406 193.777344 222.441406 198.871094 C 222.441406 203.964844 218.414062 207.992188 213.320312 207.992188 Z M 189.160156 179.328125 C 184.066406 179.328125 180.039062 175.300781 180.039062 170.207031 C 180.039062 165.113281 184.066406 160.96875 189.160156 160.96875 C 194.25 160.96875 198.277344 165.113281 198.277344 170.207031 C 198.277344 175.179688 194.25 179.328125 189.160156 179.328125 Z M 213.320312 150.664062 C 208.226562 150.664062 204.199219 146.636719 204.199219 141.542969 C 204.199219 136.449219 208.226562 132.304688 213.320312 132.304688 C 218.414062 132.304688 222.441406 136.449219 222.441406 141.542969 C 222.441406 146.636719 218.414062 150.664062 213.320312 150.664062 Z M 167.484375 101.269531 C 163.335938 101.269531 160.019531 97.953125 160.019531 93.808594 C 160.019531 89.78125 163.335938 86.464844 167.484375 86.464844 C 171.511719 86.464844 174.828125 89.78125 174.828125 93.808594 C 174.828125 97.953125 171.511719 101.269531 167.484375 101.269531 Z M 190.578125 109.445312 C 185.960938 109.445312 182.171875 105.652344 182.171875 101.035156 C 182.171875 96.296875 185.960938 92.507812 190.578125 92.507812 C 195.199219 92.507812 198.988281 96.296875 198.988281 101.035156 C 198.988281 105.652344 195.199219 109.445312 190.578125 109.445312 Z M 190.578125 109.445312 " fill-opacity="1" fill-rule="evenodd"/></svg>